<?xml version="1.0" encoding="UTF-8" standalone="no" ?>
<!DOCTYPE svg PUBLIC "-//W3C//DTD SVG 1.1//EN" "http://www.w3.org/Graphics/SVG/1.1/DTD/svg11.dtd">
<svg xmlns="http://www.w3.org/2000/svg" xmlns:xlink="http://www.w3.org/1999/xlink" version="1.1" width="1280" height="1024" viewBox="0 0 -600 800" xml:space="preserve">
<desc>Created with Fabric.js 3.6.3</desc>
<defs>
</defs>
<g transform="matrix(1.9692780337941629 0 0 1.9692780337941629 640.0153846153846 512.012312418764)" id="background-logo"  >
<rect style="stroke: none; stroke-width: 1; stroke-dasharray: none; stroke-linecap: butt; stroke-dashoffset: 0; stroke-linejoin: miter; stroke-miterlimit: 4; fill: none; fill-rule: nonzero; opacity: 1;"  paint-order="stroke"  x="-325" y="-260" rx="0" ry="0" width="650" height="520" />
</g>
<g transform="matrix(1.9692780337941629 0 0 1.9692780337941629 640.0153846153846 422.8904687935721)" id="logo-logo"  >
<g style=""  paint-order="stroke"   >
		<g transform="matrix(0.1136 0 0 -0.1136 2.141200000000026 -13.17160000000004)"  >
<path style="stroke: none; stroke-width: 1; stroke-dasharray: none; stroke-linecap: butt; stroke-dashoffset: 0; stroke-linejoin: miter; stroke-miterlimit: 4; fill: rgb(255,255,255); fill-rule: evenodd; opacity: 1;"  paint-order="stroke"  transform=" translate(-3148.875, -2454.555)" d="m 2886 2313.66 c 24.74 -42.75 60.39 -78.39 103.13 -103.13 c 41.45 -23.99 89.57 -37.72 140.89 -37.72 c 51.32 0 99.44 13.73 140.89 37.71 c 42.74 24.75 78.39 60.39 103.13 103.14 c 23.98 41.45 37.71 89.57 37.71 140.89 c 0 51.32 -13.73 99.43 -37.71 140.88 c -24.74 42.75 -60.38 78.41 -103.13 103.15 c -41.45 23.99 -89.57 37.72 -140.89 37.72 c -51.34 0 -99.47 -13.74 -140.93 -37.74 l 29.07 -50.26 c 32.9 19.04 71.11 29.94 111.86 29.94 c 123.52 0 223.67 -100.15 223.67 -223.69 c 0 -123.53 -100.15 -223.68 -223.67 -223.68 c -82.78 0 -155.06 44.98 -193.72 111.83 l -50.3 -29.04" stroke-linecap="round" />
</g>
		<g transform="matrix(0.1136 0 0 -0.1136 21.742700000000013 -18.13420000000005)"  >
<path style="stroke: none; stroke-width: 1; stroke-dasharray: none; stroke-linecap: butt; stroke-dashoffset: 0; stroke-linejoin: miter; stroke-miterlimit: 4; fill: rgb(255,255,255); fill-rule: evenodd; opacity: 1;"  paint-order="stroke"  transform=" translate(-3321.48, -2498.255)" d="m 2785.65 1855.85 l -21.3 -54.67 c 108.13 -60.66 232.86 -95.25 365.67 -95.25 c 413.44 0 748.59 335.18 748.59 748.62 c 0 339.62 -226.16 626.43 -536.09 718.02 c -61.9 18.29 -127.14 28.8 -194.59 30.38 h -17.91 h -0.3 l -15.13 0.03 v 87.6 l -227.93 -175.26 l 227.93 -175.25 v 87.62 h 15.33 l 0.1 1.29 c 13.03 0 25.96 -0.43 38.78 -1.29 c 90.1 -6 174.51 -32.78 248.49 -75.57 c 87.18 -50.44 159.86 -123.13 210.29 -210.31 c 48.88 -84.49 76.85 -182.6 76.85 -287.26 c 0 -104.66 -27.97 -202.77 -76.85 -287.27 c -50.43 -87.18 -123.12 -159.87 -210.29 -210.3 c -84.5 -48.89 -182.61 -76.87 -287.27 -76.87 c -104.66 0 -202.77 27.98 -287.27 76.87 c -4.83 2.79 -9.61 5.65 -14.35 8.58 l -21.4 -54.92 l 6.72 -3.94 c 93.03 -53.84 201.07 -84.65 316.3 -84.65 c 115.23 0 223.27 30.81 316.3 84.64 c 95.98 55.54 176.01 135.57 231.54 231.56 c 53.83 93.04 84.63 201.07 84.63 316.3 c 0 115.23 -30.8 223.25 -84.63 316.29 c -55.52 95.99 -135.56 176.03 -231.54 231.56 c -32.85 19.01 -67.56 35.14 -103.8 48.06 c -52.06 18.57 -107.27 30.5 -164.6 34.79 h -47.9 h -0.23 h -47.66 c -8.42 -0.62 -16.78 -1.42 -25.1 -2.37 v -25.95 l -28.6 22 l -47.34 36.39 l 24.09 18.53 l 51.85 39.86 v -28.32 h 72.72 h 0.27 v -0.29 c 53.27 0 105.13 -6.03 154.93 -17.45 c 19.52 -4.47 38.72 -9.77 57.57 -15.86 c 46.64 -15.07 91.12 -34.97 132.84 -59.11 c 104.78 -60.63 192.16 -148.01 252.79 -252.8 c 58.77 -101.58 92.4 -219.52 92.4 -345.33 c 0 -125.8 -33.63 -243.75 -92.41 -345.34 c -60.62 -104.78 -148 -192.17 -252.78 -252.8 c -101.59 -58.78 -219.53 -92.42 -345.34 -92.42 c -125.41 0 -243.01 33.43 -344.37 91.86" stroke-linecap="round" />
</g>
		<g transform="matrix(0.1136 0 0 -0.1136 13.412300000000016 -13.1704)"  >
<path style="stroke: none; stroke-width: 1; stroke-dasharray: none; stroke-linecap: butt; stroke-dashoffset: 0; stroke-linejoin: miter; stroke-miterlimit: 4; fill: rgb(255,255,255); fill-rule: evenodd; opacity: 1;"  paint-order="stroke"  transform=" translate(-3248.125, -2454.545)" d="m 2849.88 2020.67 c 80.68 -52.2 176.86 -82.5 280.14 -82.5 c 285.25 0 516.35 231.14 516.35 516.38 c 0 285.19 -231.01 516.28 -516.35 516.37 v -60.44 c 251.74 -0.04 455.91 -204.25 455.91 -455.93 c 0 -251.7 -204.2 -455.92 -455.91 -455.92 c -95.59 0 -184.34 29.46 -257.64 79.78 l -22.5 -57.74" stroke-linecap="round" />
</g>
		<g transform="matrix(0.1136 0 0 -0.1136 6.170999999999992 19.068299999999994)"  >
<path style="stroke: none; stroke-width: 1; stroke-dasharray: none; stroke-linecap: butt; stroke-dashoffset: 0; stroke-linejoin: miter; stroke-miterlimit: 4; fill: rgb(255,255,255); fill-rule: evenodd; opacity: 1;"  paint-order="stroke"  transform=" translate(-3184.36, -2170.66)" d="m 2894.11 2134.18 c 66.02 -48.7 147.61 -77.49 235.91 -77.49 c 147.2 0 275.78 80.02 344.59 198.91 l -50.29 29.03 c -58.76 -101.54 -168.57 -169.88 -294.3 -169.88 c -81.07 0 -155.52 28.41 -213.93 75.82 l -21.98 -56.39" stroke-linecap="round" />
</g>
		<g transform="matrix(0.1136 0 0 -0.1136 -42.27139999999997 -17.86790000000005)"  >
<path style="stroke: none; stroke-width: 1; stroke-dasharray: none; stroke-linecap: butt; stroke-dashoffset: 0; stroke-linejoin: miter; stroke-miterlimit: 4; fill: rgb(255,255,255); fill-rule: evenodd; opacity: 1;"  paint-order="stroke"  transform=" translate(-2757.79, -2495.9100000000003)" d="m 2764.18 2090.09 l 35.52 50.29 c -77.82 81.79 -125.59 192.43 -125.59 314.17 c 0 168.61 91.63 315.92 227.8 394.8 l -30.3 52.38 c -154.22 -89.29 -257.94 -256.1 -257.94 -447.18 c 0 -142.26 57.49 -271.07 150.51 -364.46" stroke-linecap="round" />
</g>
		<g transform="matrix(0.1136 0 0 -0.1136 -11.293799999999976 -20.676300000000055)"  >
<path style="stroke: none; stroke-width: 1; stroke-dasharray: none; stroke-linecap: butt; stroke-dashoffset: 0; stroke-linejoin: miter; stroke-miterlimit: 4; fill: rgb(255,255,255); fill-rule: evenodd; opacity: 1;"  paint-order="stroke"  transform=" translate(-3030.57, -2520.6400000000003)" d="m 2732.17 2454.55 c 0 -102.1 38.5 -195.24 101.76 -265.69 l 27.79 39.36 c 2.24 3.17 4.96 5.83 7.99 7.95 c -49.6 59.06 -79.48 135.24 -79.48 218.38 c 0 187.63 152.16 339.81 339.79 339.81 c 61.89 0 119.94 -16.57 169.92 -45.5 l 29.03 50.28 c -58.52 33.88 -126.48 53.28 -198.95 53.28 c -219.67 0 -397.85 -178.2 -397.85 -397.87" stroke-linecap="round" />
</g>
		<g transform="matrix(0.1136 0 0 -0.1136 -58.61250000000001 -4.903100000000023)"  >
<path style="stroke: none; stroke-width: 1; stroke-dasharray: none; stroke-linecap: butt; stroke-dashoffset: 0; stroke-linejoin: miter; stroke-miterlimit: 4; fill: rgb(255,255,255); fill-rule: evenodd; opacity: 1;"  paint-order="stroke"  transform=" translate(-2613.8949999999995, -2381.745)" d="m 2730.24 2042.03 c -38.07 36.91 -71.05 79.05 -97.78 125.26 c -48.88 84.5 -76.85 182.61 -76.85 287.26 c 0 104.15 27.71 201.81 76.14 286.02 l -50.4 28.83 c -53.31 -92.71 -83.8 -200.22 -83.8 -314.85 c 0 -115.22 30.81 -223.25 84.63 -316.3 c 30.95 -53.5 69.52 -102.05 114.21 -144.16 l 33.85 47.94" stroke-linecap="round" />
</g>
		<g transform="matrix(0.1136 0 0 -0.1136 -62.12889999999999 -18.402800000000042)"  >
<path style="stroke: none; stroke-width: 1; stroke-dasharray: none; stroke-linecap: butt; stroke-dashoffset: 0; stroke-linejoin: miter; stroke-miterlimit: 4; fill: rgb(255,255,255); fill-rule: evenodd; opacity: 1;"  paint-order="stroke"  transform=" translate(-2582.9300000000003, -2500.62)" d="m 2662.6 1946.24 c -51.35 47.25 -95.53 102.19 -130.7 162.98 c -58.77 101.59 -92.41 219.53 -92.41 345.33 c 0 125.12 33.27 242.47 91.46 343.68 c 60.61 105.43 148.25 193.36 253.48 254.3 l -29.07 50.26 c -114.08 -66.08 -209.1 -161.41 -274.82 -275.74 c -63.05 -109.7 -99.11 -236.89 -99.11 -372.5 c 0 -220.69 95.5 -419.08 247.43 -556.1 l 33.74 47.79" stroke-linecap="round" />
</g>
		<g transform="matrix(0.1136 0 0 -0.1136 -52.3972 56.705499999999944)"  >
<path style="stroke: none; stroke-width: 1; stroke-dasharray: none; stroke-linecap: butt; stroke-dashoffset: 0; stroke-linejoin: miter; stroke-miterlimit: 4; fill: rgb(255,255,255); fill-rule: evenodd; opacity: 1;"  paint-order="stroke"  transform=" translate(-2668.6243370508905, -1839.237875326949)" d="m 2892.51 2207.79 l -127.88 -328.18 l -135.23 -347 c -0.04 -0.12 -0.08 -0.22 -0.11 -0.35 c -1.81 -6.09 -4.26 -12.09 -7.39 -17.91 c -24.67 -45.9 -81.88 -63.1 -127.77 -38.43 c -45.9 24.67 -63.1 81.87 -38.43 127.76 c 3.12 5.83 6.78 11.19 10.87 16.06 c 0.08 0.1 0.15 0.19 0.23 0.29 l 214.81 304.2 l 203.16 287.71 c 1.3 1.84 3.73 2.41 5.71 1.35 c 1.98 -1.07 2.84 -3.41 2.03 -5.5" stroke-linecap="round" />
</g>
		<g transform="matrix(0.1136 0 0 -0.1136 0 -2.842171e-14)"  >
<path style="stroke: none; stroke-width: 1; stroke-dasharray: none; stroke-linecap: butt; stroke-dashoffset: 0; stroke-linejoin: miter; stroke-miterlimit: 4; fill: rgb(255,255,255); fill-rule: evenodd; opacity: 1;"  paint-order="stroke"  transform=" translate(-3130.02, -2338.5699999999997)" d="M 2313.88 1459.15 V 3218 c 0 97.04 79.4 176.45 176.45 176.45 h 1279.38 c 97.05 0 176.45 -79.41 176.45 -176.45 V 1459.15 c 0 -97.06 -79.4 -176.46 -176.45 -176.46 H 2490.33 c -97.05 0 -176.45 79.4 -176.45 176.46 z M 3769.71 3488.64 H 2490.33 c -148.86 0 -270.65 -121.78 -270.65 -270.64 V 1459.15 c 0 -148.86 121.79 -270.65 270.65 -270.65 h 1279.38 c 148.86 0 270.65 121.79 270.65 270.65 V 3218 c 0 148.86 -121.79 270.64 -270.65 270.64" stroke-linecap="round" />
</g>
</g>
</g>
<g transform="matrix(1.9692780337941629 0 0 1.9692780337941629 641.3056257534877 778.3905207361547)" id="text-logo-path"  >
<path style="stroke: none; stroke-width: 1; stroke-dasharray: none; stroke-linecap: butt; stroke-dashoffset: 0; stroke-linejoin: miter; stroke-miterlimit: 4; fill: rgb(255,255,255); fill-rule: nonzero; opacity: 1;"  paint-order="stroke"  transform=" translate(-119.42125, 22.312890534905684)" d="M 54.12 -43.61 L 54.12 -43.61 L 50.03 -40.56 Q 46.7 -44.93 42 -47.17 Q 37.3 -49.4 31.69 -49.4 L 31.69 -49.4 Q 25.52 -49.4 20.28 -46.46 Q 15.05 -43.51 12.15 -38.53 Q 9.26 -33.56 9.26 -27.32 L 9.26 -27.32 Q 9.26 -17.92 15.7 -12.19 Q 22.15 -6.45 31.96 -6.45 L 31.96 -6.45 Q 42.78 -6.45 50.03 -14.91 L 50.03 -14.91 L 54.12 -11.82 Q 50.27 -6.93 44.51 -4.26 Q 38.76 -1.59 31.69 -1.59 L 31.69 -1.59 Q 18.17 -1.59 10.37 -10.57 L 10.37 -10.57 Q 3.85 -18.17 3.85 -27.77 L 3.85 -27.77 Q 3.85 -39.04 11.77 -46.77 Q 19.69 -54.5 31.58 -54.5 L 31.58 -54.5 Q 38.79 -54.5 44.6 -51.64 Q 50.41 -48.78 54.12 -43.61 Z M 95.58 -15.5 L 95.58 -15.5 L 99.67 -13.31 Q 97.69 -9.33 95.02 -6.9 Q 92.36 -4.47 89.03 -3.21 Q 85.7 -1.94 81.5 -1.94 L 81.5 -1.94 Q 72.21 -1.94 66.98 -8.03 Q 61.74 -14.11 61.74 -21.77 L 61.74 -21.77 Q 61.74 -29.02 66.18 -34.67 L 66.18 -34.67 Q 71.8 -41.88 81.26 -41.88 L 81.26 -41.88 Q 90.93 -41.88 96.76 -34.49 L 96.76 -34.49 Q 100.88 -29.29 100.92 -21.53 L 100.92 -21.53 L 66.77 -21.53 Q 66.91 -14.87 71 -10.63 Q 75.09 -6.38 81.09 -6.38 L 81.09 -6.38 Q 84 -6.38 86.74 -7.4 Q 89.48 -8.42 91.4 -10.09 Q 93.33 -11.75 95.58 -15.5 Z M 67.29 -25.72 L 95.58 -25.72 Q 94.61 -29.64 92.74 -31.98 Q 90.86 -34.32 87.78 -35.76 Q 84.69 -37.2 81.3 -37.2 L 81.3 -37.2 Q 75.71 -37.2 71.69 -33.59 L 71.69 -33.59 Q 68.78 -30.96 67.29 -25.72 L 67.29 -25.72 Z M 121.55 -5.75 L 105.95 -40.91 L 111.11 -40.91 L 124.18 -11.61 L 136.87 -40.91 L 142.1 -40.91 L 119.4 10.99 L 114.23 10.99 L 121.55 -5.75 Z M 151.43 -9.36 L 151.43 -9.36 Q 148.31 -14.56 147.69 -19.59 L 147.69 -19.59 Q 147.69 -55.68 147.69 -55.61 L 147.69 -55.61 L 152.54 -55.61 L 152.54 -34.39 Q 155.62 -38.17 159.44 -40.02 Q 163.25 -41.88 167.79 -41.88 L 167.79 -41.88 Q 175.84 -41.88 181.56 -36.02 Q 187.28 -30.16 187.28 -21.81 L 187.28 -21.81 Q 187.28 -13.59 181.52 -7.77 Q 175.77 -1.94 167.65 -1.94 L 167.65 -1.94 Q 163.01 -1.94 158.94 -3.73 Q 154.86 -5.51 151.43 -9.36 Z M 167.24 -6.62 L 167.24 -6.62 Q 171.36 -6.62 174.81 -8.65 Q 178.26 -10.68 180.31 -14.28 Q 182.35 -17.89 182.35 -21.98 L 182.35 -21.98 Q 182.35 -26 180.29 -29.69 Q 178.23 -33.39 174.74 -35.41 Q 171.26 -37.44 167.31 -37.44 L 167.31 -37.44 Q 163.29 -37.44 159.68 -35.41 Q 156.08 -33.39 154.13 -29.9 Q 152.19 -26.42 152.19 -22.12 L 152.19 -22.12 Q 152.19 -15.5 156.56 -11.06 Q 160.93 -6.62 167.24 -6.62 Z M 215.05 -41.88 L 215.05 -41.88 Q 223.82 -41.88 229.61 -35.53 L 229.61 -35.53 Q 234.94 -29.75 234.94 -21.77 L 234.94 -21.77 Q 235.01 -2.08 234.94 -1.77 L 234.94 -1.77 Q 231.62 -1.77 229.78 -1.77 L 229.78 -1.77 Q 229.78 -2.01 229.78 -10.4 L 229.78 -10.4 Q 225.72 -2.84 215.05 -1.94 L 215.05 -1.94 Q 206.31 -1.94 200.78 -7.89 Q 195.25 -13.83 195.25 -21.77 L 195.25 -21.77 Q 195.25 -29.68 200.48 -35.5 L 200.48 -35.5 Q 206.27 -41.88 215.05 -41.88 Z M 215.05 -37.09 L 215.05 -37.09 Q 208.98 -37.09 204.61 -32.59 Q 200.24 -28.08 200.24 -21.7 L 200.24 -21.7 Q 200.24 -17.58 202.48 -13.76 Q 204.71 -9.95 210.05 -7.31 L 210.05 -7.31 Q 223.44 -4.33 229.09 -19.48 L 229.09 -19.48 Q 229.4 -24.34 228.05 -28.77 L 228.05 -28.77 Q 227.08 -30.79 225.38 -32.59 L 225.38 -32.59 Q 221.11 -37.09 215.05 -37.09 Z" stroke-linecap="round" />
</g>
</svg>